<svg width="79" height="102" viewBox="0 0 79 102" fill="none" xmlns="http://www.w3.org/2000/svg">
<path fill-rule="evenodd" clip-rule="evenodd" d="M35.298 87.3577H5.35076C6.56776 85.9255 7.76438 84.4037 8.93923 82.8027C11.7771 78.9355 14.3537 74.7996 16.6244 70.6642C17.4191 69.2168 18.1193 67.8719 18.7191 66.6635C18.9297 66.239 19.113 65.8614 19.2681 65.5349C19.3623 65.3367 19.4269 65.198 19.4611 65.1231C19.9148 64.1297 19.1887 63 18.0967 63H15.0765C19.3723 57.4267 22.5853 52.332 24.8689 47.7836C25.7912 45.9464 26.4959 44.3258 27.0115 42.9346C27.3285 42.0795 27.5143 41.4791 27.5979 41.1459C27.8356 40.1989 27.1195 39.2808 26.143 39.2808H22.6252C24.6599 36.7772 26.573 34.1009 28.3683 31.274C32.3833 24.9519 35.6297 18.1884 38.1764 11.4255C38.7294 9.95712 39.2244 8.55325 39.6634 7.22707C40.1026 8.55328 40.5978 9.95719 41.1509 11.4256C43.6983 18.1885 46.9448 24.9519 50.9593 31.274C52.7545 34.1009 54.6672 36.7772 56.7015 39.2808H53.1832C52.2065 39.2808 51.4903 40.1993 51.7284 41.1465C51.8122 41.4796 51.9982 42.08 52.3154 42.935C52.8315 44.3262 53.5366 45.9467 54.4594 47.7839C56.744 52.3322 59.9576 57.4268 64.2535 63H61.2334C60.1414 63 59.4154 64.1295 59.8688 65.1228C59.903 65.1977 59.9675 65.3363 60.0617 65.5346C60.2167 65.8611 60.3999 66.2387 60.6105 66.6632C61.2099 67.8717 61.9098 69.2166 62.7042 70.664C64.974 74.7994 67.5499 78.9354 70.3873 82.8026C71.562 84.4036 72.7585 85.9254 73.9755 87.3577H46.6665C45.8381 87.3577 45.1665 88.0293 45.1665 88.8577V98.9769H35.298C34.4696 98.9769 33.798 99.6485 33.798 100.477C33.798 101.305 34.4696 101.977 35.298 101.977H46.6665C47.4949 101.977 48.1665 101.305 48.1665 100.477V90.3577H77.3261C78.6408 90.3577 79.3195 88.7867 78.4183 87.8295C76.5053 85.7976 74.6313 83.5155 72.8061 81.0279C70.0532 77.276 67.5449 73.2485 65.3342 69.2206C64.7047 68.0737 64.1367 66.994 63.6337 66H67.3483C68.6093 66 69.3076 64.5386 68.5153 63.5575C63.3717 57.1887 59.6575 51.4489 57.1402 46.4373C56.3534 44.8708 55.7388 43.4823 55.2754 42.2808H59.9432C61.2373 42.2808 61.9241 40.7519 61.0645 39.7845C58.3375 36.7151 55.8152 33.3245 53.4919 29.6658C49.597 23.5322 46.4377 16.9505 43.9583 10.3681C43.0907 8.06471 42.3706 5.92733 41.7904 4.01184C41.5882 3.34392 41.418 2.7523 41.2791 2.24396C41.1968 1.94302 41.1438 1.73925 41.1192 1.63962C40.743 0.12 38.5828 0.120177 38.207 1.63985C38.1823 1.73948 38.1294 1.94324 38.0472 2.24417C37.9083 2.75251 37.7383 3.34412 37.5361 4.01202C36.9562 5.92749 36.2363 8.06485 35.3689 10.3682C32.8901 16.9505 29.7311 23.5322 25.8358 29.6657C23.5122 33.3244 20.9895 36.715 18.2618 39.7844C17.4021 40.7517 18.0888 42.2808 19.383 42.2808H24.0515C23.5885 43.4824 22.9743 44.8709 22.1878 46.4376C19.6717 51.4491 15.9583 57.1887 10.8148 63.5575C10.0225 64.5386 10.7207 66 11.9817 66H15.6958C15.1925 66.994 14.6244 68.0736 13.9947 69.2203C11.783 73.2484 9.27394 77.2759 6.5206 81.0278C4.69511 83.5154 2.82088 85.7976 0.907901 87.8295C0.00673345 88.7867 0.685383 90.3577 2.00005 90.3577H35.298C36.1265 90.3577 36.798 89.6861 36.798 88.8577C36.798 88.0293 36.1265 87.3577 35.298 87.3577ZM38.3377 27.5185C36.5376 27.5185 35.0775 28.9723 35.0775 30.7646C35.0775 32.5569 36.5376 34.0108 38.3377 34.0108C40.1378 34.0108 41.5941 32.5569 41.5941 30.7646C41.5941 28.9723 40.1378 27.5185 38.3377 27.5185ZM41.7923 44.9473C41.7923 42.7319 43.5963 40.9358 45.8213 40.9358C48.0463 40.9358 49.8503 42.7319 49.8503 44.9473C49.8503 47.1627 48.0463 48.9588 45.8213 48.9588C43.5963 48.9588 41.7923 47.1627 41.7923 44.9473ZM30.0086 51.7185C28.2973 51.7185 26.9106 53.0992 26.9106 54.8031C26.9106 56.5069 28.2973 57.8877 30.0086 57.8877C31.716 57.8877 33.1028 56.5069 33.1028 54.8031C33.1028 53.0992 31.716 51.7185 30.0086 51.7185ZM33.4118 69.1058C33.4118 66.2635 35.7257 63.9635 38.5765 63.9635C41.4311 63.9635 43.745 66.2635 43.745 69.1058C43.745 71.9481 41.4311 74.2481 38.5765 74.2481C35.7257 74.2481 33.4118 71.9481 33.4118 69.1058ZM55.5982 76.2031C53.6011 76.2031 51.9826 77.8146 51.9826 79.8031C51.9826 81.7915 53.6011 83.4031 55.5982 83.4031C57.5953 83.4031 59.2139 81.7915 59.2139 79.8031C59.2139 77.8146 57.5953 76.2031 55.5982 76.2031ZM20.465 78.9615C20.465 77.4308 21.7088 76.1923 23.2463 76.1923C24.7837 76.1923 26.0314 77.4308 26.0314 78.9615C26.0314 80.4923 24.7837 81.7308 23.2463 81.7308C21.7088 81.7308 20.465 80.4923 20.465 78.9615ZM51.1903 57.175C49.5679 57.175 48.2545 58.4827 48.2545 60.0981C48.2545 61.7096 49.5679 63.0212 51.1903 63.0212C52.8088 63.0212 54.1222 61.7096 54.1222 60.0981C54.1222 58.4827 52.8088 57.175 51.1903 57.175Z" fill="black" fill-opacity="0.87"/>
</svg>
