<svg width="135" height="135" viewBox="0 0 135 135" fill="none" xmlns="http://www.w3.org/2000/svg">
<path d="M36.5556 21.4775H26.9705C23.9436 21.4775 21.4773 24.0056 21.4773 27.1083V77.2104C21.4773 80.3131 23.9436 82.8412 26.9705 82.8412H79.7727" stroke="white" stroke-width="3" stroke-linecap="round" stroke-linejoin="round"/>
<path d="M98.1817 56.7616V27.0229C98.1817 23.9673 95.752 21.4775 92.7701 21.4775H49.0908" stroke="white" stroke-width="3" stroke-linecap="round" stroke-linejoin="round"/>
<path d="M72.9294 50.7568C73.8719 51.3666 73.8719 52.891 72.9294 53.5007L51.2529 67.281C50.3105 67.8908 49.0908 67.1591 49.0908 65.9396V38.379C49.0908 37.1595 50.3105 36.4278 51.2529 37.0375L72.9294 50.8178V50.7568Z" stroke="white" stroke-width="3" stroke-linecap="round" stroke-linejoin="round"/>
<path d="M64.5521 111.431L64.5521 111.431L64.5423 111.427C62.0325 110.583 60.5094 109.086 59.9978 107.272L59.9966 107.268C59.4776 105.45 59.969 103.426 61.4531 101.562C62.9399 99.6949 65.3773 98.0691 68.494 97.2142L68.503 97.2117L68.512 97.2091C71.3639 96.3885 74.2375 96.4489 76.6072 97.1938C79.1091 98.0387 80.6277 99.534 81.1385 101.344L81.1397 101.349C81.6587 103.167 81.1672 105.191 79.6832 107.054C78.1964 108.922 75.7589 110.548 72.6423 111.403L72.6297 111.406L72.6172 111.41C71.2173 111.82 69.7688 112.023 68.438 112.023H68.3812C66.9889 112.023 65.6799 111.819 64.5521 111.431Z" stroke="white" stroke-width="3" stroke-linecap="round"/>
<path d="M98.3011 105.294L98.3011 105.294L98.2912 105.291C95.7952 104.451 94.2568 102.902 93.7439 101.127C93.232 99.3545 93.694 97.276 95.3801 95.2626C96.9862 93.3781 99.3844 91.8487 102.237 91.0791L102.249 91.0759L102.261 91.0724C105.113 90.2517 107.987 90.3122 110.357 91.0571C112.844 91.8972 114.378 93.443 114.89 95.2145C115.408 97.0308 114.917 99.0388 113.435 100.895C111.947 102.757 109.506 104.386 106.381 105.269L106.374 105.271L106.367 105.273C104.967 105.683 103.518 105.887 102.187 105.887H102.13C100.738 105.887 99.4289 105.682 98.3011 105.294Z" stroke="white" stroke-width="3" stroke-linecap="round"/>
<path d="M113.523 92.0461V61.3643L79.7727 69.7165L79.7727 98.1824" stroke="white" stroke-width="3" stroke-linecap="round" stroke-linejoin="round"/>
</svg>
